<svg viewBox="0 0 40 40" xmlns="http://www.w3.org/2000/svg"><g fill="none"><path d="M40.0000276,20.0000138 C40.0000276,31.0456045 31.0458803,40.0000276 20.0000138,40.0000276 C8.95442311,40.0000276 0,31.0456045 0,20.0000138 C0,8.95442311 8.95442311,0 20.0000138,0 C31.0458803,0 40.0000276,8.95442311 40.0000276,20.0000138" fill="#ffffff"></path><path d="M34.5946222,4.32435191 C31.7806146,10.1678576 20.5844152,33.2307007 17.2973249,40.0000276" stroke="#000000" stroke-width="1.36" stroke-linecap="round"></path><path d="M17.5720592,14.0540816 C14.4169892,20.0232324 9.30020199,28.7192507 6.62880562,29.1774595 C5.3650307,29.3938512 5.68493225,26.5923659 9.04198793,23.3241045 C14.276964,18.2279825 23.0016512,17.4917531 35.6757033,17.0410061" stroke="#000000" stroke-width="1.164" stroke-linecap="round"></path><path d="M20.5405681,9.45948704 C20.5405681,9.90719687 20.1774671,10.2702979 19.7297573,10.2702979 C19.2817607,10.2702979 18.9189465,9.90719687 18.9189465,9.45948704 C18.9189465,9.01149041 19.2817607,8.64867623 19.7297573,8.64867623 C20.1774671,8.64867623 20.5405681,9.01149041 20.5405681,9.45948704" fill="#000000"></path><path d="M20.5405681,9.45948704 C20.5405681,9.90719687 20.1774671,10.2702979 19.7297573,10.2702979 C19.2817607,10.2702979 18.9189465,9.90719687 18.9189465,9.45948704 C18.9189465,9.01149041 19.2817607,8.64867623 19.7297573,8.64867623 C20.1774671,8.64867623 20.5405681,9.01149041 20.5405681,9.45948704 Z" stroke="#ffffff" stroke-width=".5"></path></g></svg>